<svg width="32" height="32" viewBox="0 0 32 32" fill="none" xmlns="http://www.w3.org/2000/svg">
<path d="M14.4 3.2002C13.5163 3.2002 12.8 3.91654 12.8 4.8002C12.8 5.68385 13.5163 6.4002 14.4 6.4002H17.6C18.4836 6.4002 19.2 5.68385 19.2 4.8002C19.2 3.91654 18.4836 3.2002 17.6 3.2002H14.4Z" fill="#00A991"/>
<path fill-rule="evenodd" clip-rule="evenodd" d="M6.39999 8.0002C6.39999 6.23288 7.83268 4.8002 9.59999 4.8002C9.59999 7.45116 11.749 9.60019 14.4 9.60019H17.6C20.251 9.60019 22.4 7.45116 22.4 4.8002C24.1673 4.8002 25.6 6.23288 25.6 8.0002V25.6002C25.6 27.3675 24.1673 28.8002 22.4 28.8002H9.59999C7.83268 28.8002 6.39999 27.3675 6.39999 25.6002V8.0002ZM21.9314 17.1316C22.5562 16.5067 22.5562 15.4937 21.9314 14.8688C21.3065 14.244 20.2935 14.244 19.6686 14.8688L14.4 20.1375L12.3314 18.0688C11.7065 17.444 10.6935 17.444 10.0686 18.0688C9.44378 18.6937 9.44378 19.7067 10.0686 20.3316L13.2686 23.5316C13.8935 24.1564 14.9065 24.1564 15.5314 23.5316L21.9314 17.1316Z" fill="#00A991"/>
</svg>
