<svg width="26" height="26" viewBox="0 0 26 26" fill="none" xmlns="http://www.w3.org/2000/svg">
<path d="M13.0005 4.96231C14.8632 4.93402 16.6646 5.61902 18.0267 6.87356L21.6955 3.33237C19.3417 1.15528 16.2259 -0.0385234 13.0005 0.000948529C10.5905 0.000398862 8.22797 0.661603 6.17696 1.91062C4.12596 3.15963 2.46738 4.94721 1.38672 7.07344L5.59047 10.2951C6.10448 8.75231 7.09614 7.40774 8.42559 6.45097C9.75505 5.49421 11.3552 4.97351 13.0005 4.96231Z" fill="#E43E2B"/>
<path d="M25.48 13.1184C25.4953 12.2363 25.403 11.3556 25.205 10.4952H13V15.2579H20.165C20.0291 16.093 19.7235 16.8922 19.2666 17.6076C18.8097 18.3231 18.2109 18.9399 17.5062 19.421L21.6087 22.5575C22.8873 21.339 23.8928 19.8694 24.5602 18.2435C25.2277 16.6177 25.5423 14.8717 25.4837 13.1184H25.48Z" fill="#3B7DED"/>
<path d="M5.60543 15.3706C5.3212 14.5537 5.17467 13.6963 5.17168 12.8325C5.17686 11.9702 5.31814 11.1139 5.59043 10.2945L1.38668 7.07288C0.47492 8.85968 0 10.8325 0 12.8332C0 14.8338 0.47492 16.8066 1.38668 18.5934L5.60543 15.3706Z" fill="#F0B501"/>
<path d="M13.0006 25.6651C16.1672 25.7535 19.2478 24.6412 21.6094 22.557L17.5069 19.4205C16.1767 20.3007 14.6014 20.7493 13.0006 20.7037C11.3568 20.6941 9.75774 20.1737 8.43037 19.2165C7.103 18.2593 6.11467 16.9138 5.60561 15.371L1.40186 18.5938C2.4796 20.7191 4.13547 22.5063 6.184 23.7552C8.23253 25.0041 10.5928 25.6654 13.0006 25.6651Z" fill="#2BA24C"/>
</svg>
