<svg width="32" height="32" viewBox="0 0 32 32" fill="none" xmlns="http://www.w3.org/2000/svg">
<path d="M17.1314 3.66858C16.5065 3.04374 15.4935 3.04374 14.8686 3.66858L3.66864 14.8686C3.0438 15.4934 3.0438 16.5065 3.66864 17.1313C4.29348 17.7562 5.30654 17.7562 5.93138 17.1313L6.40001 16.6627V27.1999C6.40001 28.0836 7.11636 28.7999 8.00001 28.7999H11.2C12.0837 28.7999 12.8 28.0836 12.8 27.1999V24C12.8 23.1163 13.5164 22.4 14.4 22.4H17.6C18.4837 22.4 19.2 23.1163 19.2 24V27.1999C19.2 28.0836 19.9164 28.7999 20.8 28.7999H24C24.8837 28.7999 25.6 28.0836 25.6 27.1999V16.6627L26.0686 17.1313C26.6935 17.7562 27.7065 17.7562 28.3314 17.1313C28.9562 16.5065 28.9562 15.4934 28.3314 14.8686L17.1314 3.66858Z" fill="#00A991"/>
</svg>
