<svg width="18" height="20" viewBox="0 0 18 20" fill="none" xmlns="http://www.w3.org/2000/svg">
<path d="M12 15H17L15.5951 13.5951C15.2141 13.2141 15 12.6973 15 12.1585V9C15 6.38757 13.3304 4.16509 11 3.34142V3C11 1.89543 10.1046 1 9.00003 1C7.89546 1 7.00003 1.89543 7.00003 3V3.34142C4.66965 4.16509 3.00003 6.38757 3.00003 9V12.1585C3.00003 12.6973 2.78598 13.2141 2.40496 13.5951L1.00003 15H6.00003M12 15V16C12 17.6569 10.6569 19 9.00003 19C7.34318 19 6.00003 17.6569 6.00003 16V15M12 15H6.00003" stroke="#0C2421" stroke-width="2" stroke-linecap="round" stroke-linejoin="round"/>
</svg>
