<svg width="26" height="26" viewBox="0 0 26 26" fill="none" xmlns="http://www.w3.org/2000/svg">
<path fill-rule="evenodd" clip-rule="evenodd" d="M9.6 3.2C6.06538 3.2 3.2 6.06538 3.2 9.6C3.2 13.1346 6.06538 16 9.6 16C13.1346 16 16 13.1346 16 9.6C16 6.06538 13.1346 3.2 9.6 3.2ZM0 9.6C0 4.29807 4.29807 0 9.6 0C14.9019 0 19.2 4.29807 19.2 9.6C19.2 11.6733 18.5427 13.5931 17.4252 15.1625L25.1314 22.8686C25.7562 23.4935 25.7562 24.5065 25.1314 25.1314C24.5065 25.7562 23.4935 25.7562 22.8686 25.1314L15.1625 17.4252C13.5931 18.5427 11.6733 19.2 9.6 19.2C4.29807 19.2 0 14.9019 0 9.6Z" fill="#00A991"/>
</svg>
